<?xml version="1.0" standalone="no"?>
<!DOCTYPE svg PUBLIC "-//W3C//DTD SVG 20010904//EN"
 "http://www.w3.org/TR/2001/REC-SVG-20010904/DTD/svg10.dtd">
<svg version="1.0" xmlns="http://www.w3.org/2000/svg"
 width="120px" height="50px" viewBox="0 0 925.000000 426.000000"
 preserveAspectRatio="xMidYMid meet">

<g transform="translate(0.000000,426.000000) scale(0.100000,-0.100000)"
fill="#000000" stroke="none">
<path d="M1618 3217 c-285 -56 -518 -104 -518 -107 0 -4 102 -65 321 -192 l47
-27 348 206 c192 113 353 209 359 214 17 16 -35 7 -557 -94z"/>
<path d="M1867 3091 c-202 -120 -369 -220 -372 -223 -4 -4 245 -149 1096 -640
l46 -27 -57 167 c-32 92 -118 341 -192 554 -73 213 -137 388 -143 387 -5 0
-175 -98 -378 -218z"/>
<path d="M2294 3285 c4 -11 89 -254 188 -540 99 -286 183 -523 187 -527 6 -7
339 186 363 210 7 7 -111 150 -352 428 -200 231 -369 426 -378 434 -13 13 -14
13 -8 -5z"/>
<path d="M1055 3078 c-40 -105 -364 -1052 -361 -1055 3 -3 588 659 733 829 13
15 -3 27 -172 127 -103 61 -189 111 -191 111 -3 0 -7 -6 -9 -12z"/>
<path d="M1110 2442 c-190 -216 -362 -412 -382 -436 l-37 -43 382 -222 382
-221 3 330 c1 181 1 477 0 658 l-3 327 -345 -393z"/>
<path d="M1580 2556 l0 -115 99 57 c54 31 97 60 95 63 -4 7 -181 109 -189 109
-3 0 -5 -52 -5 -114z"/>
<path d="M5340 2095 l0 -485 100 0 100 0 0 485 0 485 -100 0 -100 0 0 -485z"/>
<path d="M3719 2556 c-125 -45 -192 -139 -192 -272 0 -112 55 -203 156 -256
37 -20 62 -23 215 -28 l174 -5 24 -28 c26 -30 32 -83 14 -118 -24 -45 -53 -49
-330 -49 l-260 0 0 -90 0 -90 289 0 289 0 63 33 c104 54 156 151 146 272 -8
105 -63 187 -155 232 -53 26 -67 28 -223 33 -178 5 -188 8 -209 60 -15 37 -6
75 25 106 l24 24 266 0 265 0 0 95 0 95 -272 0 c-197 -1 -283 -4 -309 -14z"/>
<path d="M4400 2095 l0 -475 95 0 95 0 0 189 0 190 233 3 c217 3 235 4 273 25
64 34 97 66 129 125 26 46 29 64 30 133 0 68 -4 88 -27 131 -15 29 -46 68 -69
87 -74 64 -96 67 -446 67 l-313 0 0 -475z m604 281 c70 -29 88 -105 37 -157
l-29 -29 -211 0 -211 0 0 95 0 94 108 4 c256 7 273 7 306 -7z"/>
<path d="M5993 2555 c-138 -37 -241 -123 -306 -253 l-42 -85 0 -121 c0 -103 4
-130 23 -179 48 -117 152 -222 270 -268 51 -21 77 -24 255 -27 l197 -4 0 91 0
91 -147 0 c-201 0 -248 13 -329 94 -46 47 -64 73 -75 111 -32 114 0 227 87
304 70 61 111 71 306 71 l168 0 0 95 0 95 -177 -1 c-120 0 -195 -5 -230 -14z"/>
<path d="M6490 2283 c0 -159 4 -315 10 -347 20 -122 100 -230 210 -284 50 -24
65 -27 165 -27 100 0 115 2 167 28 111 54 188 160 208 283 6 32 10 188 10 347
l0 287 -95 0 -95 0 0 -302 c0 -340 -3 -353 -73 -415 -32 -28 -90 -53 -122 -53
-32 0 -90 25 -122 53 -70 62 -73 75 -73 415 l0 302 -95 0 -95 0 0 -287z"/>
<path d="M7550 2561 c-138 -43 -218 -158 -208 -300 6 -76 25 -120 77 -174 68
-73 95 -81 288 -87 172 -5 173 -5 200 -32 41 -41 39 -100 -5 -139 l-32 -29
-265 0 -265 0 0 -96 0 -95 283 3 c270 3 284 4 333 26 212 96 227 391 25 510
-44 26 -53 27 -218 32 l-172 5 -30 29 c-43 41 -43 95 -2 137 l29 29 271 0 271
0 0 95 0 95 -277 -1 c-153 0 -289 -4 -303 -8z"/>
<path d="M1798 2432 c-54 -31 -98 -59 -98 -62 0 -3 22 -17 48 -31 26 -15 144
-83 263 -151 l215 -125 95 54 c52 30 97 58 101 62 7 6 -509 312 -523 310 -2 0
-48 -26 -101 -57z"/>
<path d="M2857 2283 l-177 -106 0 -415 c0 -228 2 -413 4 -411 8 9 358 1030
354 1034 -2 2 -84 -43 -181 -102z"/>
<path d="M1582 2180 l3 -122 153 -89 c85 -49 158 -89 163 -89 5 0 54 26 109
58 l98 58 -241 139 c-133 76 -252 145 -265 153 l-23 15 3 -123z"/>
<path d="M2068 1837 c-306 -177 -559 -324 -562 -327 -3 -3 243 -52 547 -110
304 -57 560 -105 570 -108 16 -4 17 21 17 432 0 240 -3 436 -7 436 -5 -1 -259
-146 -565 -323z"/>
<path d="M1580 1805 l0 -116 48 28 c26 15 71 42 100 59 l54 32 -74 42 c-40 23
-83 49 -95 56 -12 8 -25 14 -28 14 -3 0 -5 -52 -5 -115z"/>
<path d="M772 1838 c35 -40 196 -226 358 -413 161 -187 299 -347 307 -355 11
-12 13 20 13 201 l0 215 -365 212 c-201 117 -368 212 -371 212 -4 0 22 -33 58
-72z"/>
<path d="M1480 1260 c0 -176 2 -210 14 -210 19 0 1097 208 1102 213 4 3 -1083
208 -1103 207 -10 0 -13 -49 -13 -210z"/>
</g>
</svg>
